<svg width="24" height="25" viewBox="0 0 24 25" fill="none" xmlns="http://www.w3.org/2000/svg">
<path d="M21.6602 10.9395L20.6802 15.1195C19.8402 18.7295 18.1802 20.1895 15.0602 19.8895C14.5602 19.8495 14.0202 19.7595 13.4402 19.6195L11.7602 19.2195C7.59018 18.2295 6.30018 16.1695 7.28018 11.9895L8.26018 7.79952C8.46018 6.94952 8.70018 6.20952 9.00018 5.59952C10.1702 3.17952 12.1602 2.52952 15.5002 3.31952L17.1702 3.70952C21.3602 4.68952 22.6402 6.75952 21.6602 10.9395Z" stroke="#969696" stroke-width="1.5" stroke-linecap="round" stroke-linejoin="round"/>
<path d="M15.0603 19.8896C14.4403 20.3096 13.6603 20.6596 12.7103 20.9696L11.1303 21.4896C7.16034 22.7696 5.07034 21.6996 3.78034 17.7296L2.50034 13.7796C1.22034 9.80961 2.28034 7.70961 6.25034 6.42961L7.83034 5.90961C8.24034 5.77961 8.63034 5.66961 9.00034 5.59961C8.70034 6.20961 8.46034 6.94961 8.26034 7.79961L7.28034 11.9896C6.30034 16.1696 7.59034 18.2296 11.7603 19.2196L13.4403 19.6196C14.0203 19.7596 14.5603 19.8496 15.0603 19.8896Z" stroke="#969696" stroke-width="1.5" stroke-linecap="round" stroke-linejoin="round"/>
<path d="M12.6396 9.03027L17.4896 10.2603" stroke="#969696" stroke-width="1.5" stroke-linecap="round" stroke-linejoin="round"/>
<path d="M11.6602 12.9004L14.5602 13.6404" stroke="#969696" stroke-width="1.5" stroke-linecap="round" stroke-linejoin="round"/>
</svg>
