<svg width="24" height="25" viewBox="0 0 24 25" fill="none" xmlns="http://www.w3.org/2000/svg">
<path d="M21.5 11.4V4.6C21.5 3.1 20.86 2.5 19.27 2.5H15.23C13.64 2.5 13 3.1 13 4.6V11.4C13 12.9 13.64 13.5 15.23 13.5H19.27C20.86 13.5 21.5 12.9 21.5 11.4Z" fill="#782DF3"/>
<path d="M11 13.6V20.4C11 21.9 10.36 22.5 8.77 22.5H4.73C3.14 22.5 2.5 21.9 2.5 20.4V13.6C2.5 12.1 3.14 11.5 4.73 11.5H8.77C10.36 11.5 11 12.1 11 13.6Z" fill="#782DF3"/>
<path d="M21.5 20.4V17.6C21.5 16.1 20.86 15.5 19.27 15.5H15.23C13.64 15.5 13 16.1 13 17.6V20.4C13 21.9 13.64 22.5 15.23 22.5H19.27C20.86 22.5 21.5 21.9 21.5 20.4Z" fill="#782DF3"/>
<path d="M11 7.4V4.6C11 3.1 10.36 2.5 8.77 2.5H4.73C3.14 2.5 2.5 3.1 2.5 4.6V7.4C2.5 8.9 3.14 9.5 4.73 9.5H8.77C10.36 9.5 11 8.9 11 7.4Z" fill="#782DF3"/>
</svg>
