<svg width="24" height="25" viewBox="0 0 24 25" fill="none" xmlns="http://www.w3.org/2000/svg">
<path d="M14 2.5C16 2.5 17 3.51 17 5.53V12.58C17 14.57 15.59 15.34 13.86 14.3L12.54 13.5C12.24 13.32 11.76 13.32 11.46 13.5L10.14 14.3C8.41 15.34 7 14.57 7 12.58V5.53C7 3.51 8 2.5 10 2.5H14Z" stroke="#969696" stroke-width="1.5" stroke-linecap="round" stroke-linejoin="round"/>
<path d="M6.82 5.48996C3.41 6.05996 2 8.15996 2 12.4V15.43C2 20.48 4 22.5 9 22.5H15C20 22.5 22 20.48 22 15.43V12.4C22 8.08996 20.54 5.97996 17 5.45996" stroke="#969696" stroke-width="1.5" stroke-linecap="round" stroke-linejoin="round"/>
</svg>
