<svg width="24" height="25" viewBox="0 0 24 25" fill="none" xmlns="http://www.w3.org/2000/svg">
<path d="M21.5599 11.2396L20.1999 9.65957C19.9399 9.35957 19.7299 8.79957 19.7299 8.39957V6.69957C19.7299 5.63957 18.8599 4.76957 17.7999 4.76957H16.0999C15.7099 4.76957 15.1399 4.55957 14.8399 4.29957L13.2599 2.93957C12.5699 2.34957 11.4399 2.34957 10.7399 2.93957L9.16988 4.30957C8.86988 4.55957 8.29988 4.76957 7.90988 4.76957H6.17988C5.11988 4.76957 4.24988 5.63957 4.24988 6.69957V8.40957C4.24988 8.79957 4.03988 9.35957 3.78988 9.65957L2.43988 11.2496C1.85988 11.9396 1.85988 13.0596 2.43988 13.7496L3.78988 15.3396C4.03988 15.6396 4.24988 16.1996 4.24988 16.5896V18.2996C4.24988 19.3596 5.11988 20.2296 6.17988 20.2296H7.90988C8.29988 20.2296 8.86988 20.4396 9.16988 20.6996L10.7499 22.0596C11.4399 22.6496 12.5699 22.6496 13.2699 22.0596L14.8499 20.6996C15.1499 20.4396 15.7099 20.2296 16.1099 20.2296H17.8099C18.8699 20.2296 19.7399 19.3596 19.7399 18.2996V16.5996C19.7399 16.2096 19.9499 15.6396 20.2099 15.3396L21.5699 13.7596C22.1499 13.0696 22.1499 11.9296 21.5599 11.2396ZM16.6799 12.4996L15.5099 16.0596C15.3599 16.6496 14.7299 17.1296 14.0899 17.1296H12.2399C11.9199 17.1296 11.4699 17.0196 11.2699 16.8196L9.79988 15.6696C9.76988 16.3096 9.47988 16.5796 8.76988 16.5796H8.28988C7.54988 16.5796 7.24988 16.2896 7.24988 15.5896V10.8096C7.24988 10.1096 7.54988 9.81957 8.28988 9.81957H8.77988C9.51988 9.81957 9.81988 10.1096 9.81988 10.8096V11.1696L11.7599 8.28957C11.9599 7.97957 12.4699 7.75957 12.8999 7.92957C13.3699 8.08957 13.6699 8.60957 13.5699 9.06957L13.3299 10.6296C13.3099 10.7696 13.3399 10.8996 13.4299 10.9996C13.5099 11.0896 13.6299 11.1496 13.7599 11.1496H15.7099C16.0899 11.1496 16.4099 11.2996 16.5999 11.5696C16.7699 11.8296 16.7999 12.1596 16.6799 12.4996Z" fill="#FFC107"/>
</svg>
