<svg width="48" height="49" viewBox="0 0 48 49" fill="none" xmlns="http://www.w3.org/2000/svg">
<path d="M39.66 17.8996L30.6 8.83961C28.7 6.93961 26.08 5.91961 23.4 6.05961L13.4 6.53961C9.39995 6.71961 6.21995 9.89961 6.01995 13.8796L5.53995 23.8796C5.41995 26.5596 6.41995 29.1796 8.31995 31.0796L17.3799 40.1396C21.0999 43.8596 27.1399 43.8596 30.8799 40.1396L39.66 31.3596C43.4 27.6596 43.4 21.6196 39.66 17.8996ZM19 25.2596C15.84 25.2596 13.24 22.6796 13.24 19.4996C13.24 16.3196 15.84 13.7396 19 13.7396C22.16 13.7396 24.76 16.3196 24.76 19.4996C24.76 22.6796 22.16 25.2596 19 25.2596ZM35.06 27.5596L27.0599 35.5596C26.76 35.8596 26.3799 35.9996 26 35.9996C25.62 35.9996 25.24 35.8596 24.94 35.5596C24.36 34.9796 24.36 34.0196 24.94 33.4396L32.9399 25.4396C33.5199 24.8596 34.48 24.8596 35.06 25.4396C35.64 26.0196 35.64 26.9796 35.06 27.5596Z" fill="#782DF3"/>
</svg>
